# xmcd
#
# Track frame offsets: 
#        150
#        26813
#        30682
#        34048
#        40081
#        42161
#        51892
#        52461
#        60952
#        61722
#        64525
#        65975
#        73900
#        76434
#        84649
#        85958
#        88052
#        92091
#        96093
#        96624
#        116152
#        127359
#        130944
#        134855
#        144478
#        144910
#        149865
#        150701
#        158940
#        159609
#        166558
#        168497
#        175367
#        180231
#        185712
#        194307
#        194823
#        204395
#        204892
#        222796
#        227066
#        230434
#        232734
#        246768
#        250459
#
# Disc length: 3474 seconds
#
# Revision: 0
# Processed by: cddbd v1.5.2PL0 Copyright (c) Steve Scherf et al.
# Submitted via: ExactAudioCopy v1.0b1
#
DISCID=a50d902d
DTITLE=Stefan Grossman - Classic Ragtime Guitar CD1
DYEAR=2001
DGENRE=Other
TTITLE0=Performance of The Entertainer
TTITLE1=Introduction to The Entertainer
TTITLE2=Tuning to Dropped D tuning (DADGBE)
TTITLE3=Teaching of introduction
TTITLE4=Play slowly introduction
TTITLE5=Teaching of first bar of Section A
TTITLE6=Plays Slowly first bar of Section A
TTITLE7=Teaching of second to fourth bars of Section A
TTITLE8=Plays slowly second to fourth bars of Section A
TTITLE9=Teaching of fourth to sixth bars of Section A
TTITLE10=Plays slowly from first to sixth bars of Section A
TTITLE11=Teaching of sixth to twelfth bars of Section A
TTITLE12=Plays slowly from fourth to twelfth bars of Section A
TTITLE13=Teaching of end of twelfth bar to end of Section A
TTITLE14=Plays slowly from end of twelfth bar to end of Section A
TTITLE15=Teaching of first and second endings of Section A
TTITLE16=Plays Slowly Section A
TTITLE17=Teaching of first two bars of Section B
TTITLE18=Plays slowly first two bars of Section B
TTITLE19=Teaching of third bar to end of Section B
TTITLE20=Teaching of interlude
TTITLE21=Teaching of first and second ends of Section B
TTITLE22=Plays Slowly Section B
TTITLE23=Teaching of first two bars of Section C
TTITLE24=Plays slowly first two bars of Section C
TTITLE25=Teaching of third and fourth bars of Section C
TTITLE26=Plays slowly third and fourth bars of Section C
TTITLE27=Teaching of fourth to six bars of Section C
TTITLE28=Plays slowly fourth to six bars of Section C
TTITLE29=Teaching of sevn and eigth bars of Section C
TTITLE30=Plays Slowly from seventh to thirteen bars of Section C
TTITLE31=Teaching of fourteenth bar to end of Section C
TTITLE32=Teaching of first and second endings of Section C
TTITLE33=Plays Slowly Section C
TTITLE34=Teaching of first two bars of Section D
TTITLE35=Plays Slowly first two bars of Section D
TTITLE36=Teaching from third to sixth bars of Section D
TTITLE37=Plays Slowly fifth and sixth bars of Section D
TTITLE38=Teaching from seventh to eighth bars of Section D
TTITLE39=Plays Slowly from thirteenth bar to ending of Section D
TTITLE40=Plays Slowly Section D
TTITLE41=Introduction to Scott Joplin performing The Entertainer
TTITLE42=Scott Joplin performing The Entertainer
TTITLE43=Closing thoughts on The Entertainer
TTITLE44=Jim McLellan performs The Entertainer
EXTD=
EXTT0=
EXTT1=
EXTT2=
EXTT3=
EXTT4=
EXTT5=
EXTT6=
EXTT7=
EXTT8=
EXTT9=
EXTT10=
EXTT11=
EXTT12=
EXTT13=
EXTT14=
EXTT15=
EXTT16=
EXTT17=
EXTT18=
EXTT19=
EXTT20=
EXTT21=
EXTT22=
EXTT23=
EXTT24=
EXTT25=
EXTT26=
EXTT27=
EXTT28=
EXTT29=
EXTT30=
EXTT31=
EXTT32=
EXTT33=
EXTT34=
EXTT35=
EXTT36=
EXTT37=
EXTT38=
EXTT39=
EXTT40=
EXTT41=
EXTT42=
EXTT43=
EXTT44=
PLAYORDER=
